<?xml version="1.0" ?><!DOCTYPE svg  PUBLIC '-//W3C//DTD SVG 1.1//EN'  'http://www.w3.org/Graphics/SVG/1.1/DTD/svg11.dtd'><svg enable-background="new 0 0 100 100" height="100px" id="Layer_1" version="1.1" viewBox="0 0 100 100" width="100px" xml:space="preserve" xmlns="http://www.w3.org/2000/svg" xmlns:xlink="http://www.w3.org/1999/xlink"><g><circle cx="50" cy="49.999" fill="#3BAAE0" r="45"/><g><path d="M70.255,50.218c0-10.906-8.966-19.75-20.032-19.75c-1.165,0-2.309,0.1-3.425,0.289    c-1.791-1.111-3.91-1.758-6.179-1.758c-6.419,0-11.618,5.127-11.618,11.457c0,2.113,0.581,4.09,1.595,5.795    c-0.264,1.279-0.405,2.607-0.405,3.967c0,10.912,8.97,19.752,20.032,19.752c1.256,0,2.479-0.115,3.668-0.33    c1.64,0.867,3.505,1.359,5.494,1.359c6.417,0,11.616-5.127,11.616-11.453c0-1.828-0.436-3.555-1.207-5.088    C70.096,53.091,70.255,51.673,70.255,50.218z M60.498,59.657c-0.926,1.297-2.293,2.318-4.072,3.043    c-1.755,0.723-3.86,1.09-6.257,1.09c-2.879,0-5.29-0.5-7.175-1.484c-1.346-0.717-2.453-1.686-3.297-2.889    c-0.852-1.207-1.281-2.408-1.281-3.568c0-0.721,0.282-1.348,0.836-1.863c0.548-0.51,1.251-0.766,2.091-0.766    c0.686,0,1.281,0.201,1.764,0.604c0.461,0.387,0.857,0.959,1.175,1.693c0.356,0.801,0.74,1.479,1.147,2.006    c0.396,0.516,0.962,0.947,1.682,1.285c0.728,0.336,1.707,0.512,2.91,0.512c1.657,0,3.015-0.35,4.034-1.037    c1-0.67,1.485-1.477,1.485-2.467c0-0.775-0.256-1.389-0.773-1.871c-0.548-0.502-1.268-0.891-2.139-1.164    c-0.912-0.277-2.146-0.58-3.675-0.898c-2.081-0.438-3.848-0.955-5.249-1.547c-1.438-0.604-2.598-1.438-3.442-2.48    c-0.86-1.064-1.298-2.396-1.298-3.961c0-1.49,0.458-2.836,1.361-3.996c0.894-1.15,2.203-2.051,3.891-2.662    c1.661-0.605,3.636-0.914,5.875-0.914c1.789,0,3.362,0.205,4.676,0.609c1.319,0.404,2.433,0.951,3.307,1.623    c0.881,0.682,1.537,1.404,1.949,2.16c0.413,0.762,0.627,1.52,0.627,2.252c0,0.705-0.277,1.348-0.823,1.906    c-0.548,0.564-1.241,0.85-2.057,0.85c-0.742,0-1.324-0.18-1.724-0.531c-0.376-0.328-0.766-0.84-1.197-1.568    c-0.5-0.936-1.104-1.674-1.799-2.195c-0.674-0.506-1.798-0.76-3.345-0.76c-1.434,0-2.603,0.283-3.471,0.846    c-0.833,0.539-1.241,1.158-1.241,1.895c0,0.447,0.13,0.824,0.401,1.146c0.282,0.346,0.684,0.643,1.193,0.895    c0.524,0.262,1.068,0.471,1.611,0.617c0.556,0.152,1.489,0.379,2.771,0.672c1.623,0.34,3.112,0.729,4.428,1.143    c1.337,0.42,2.486,0.936,3.431,1.541c0.957,0.617,1.717,1.404,2.257,2.35c0.541,0.953,0.815,2.121,0.815,3.482    C61.901,56.878,61.428,58.36,60.498,59.657z" fill="#FFFFFF"/></g></g></svg>