<?xml version="1.0" ?><!DOCTYPE svg  PUBLIC '-//W3C//DTD SVG 1.1//EN'  'http://www.w3.org/Graphics/SVG/1.1/DTD/svg11.dtd'><svg enable-background="new 0 0 100 100" height="100px" id="Layer_1" version="1.1" viewBox="0 0 100 100" width="100px" xml:space="preserve" xmlns="http://www.w3.org/2000/svg" xmlns:xlink="http://www.w3.org/1999/xlink"><g><circle cx="50" cy="50" fill="#C72127" r="45"/><g id="Youtube_1_"><path d="M68.82,37.405c-1.59-1.678-3.373-1.685-4.187-1.783c-5.852-0.426-14.625-0.426-14.625-0.426h-0.018    c0,0-8.774,0-14.624,0.426c-0.817,0.098-2.597,0.105-4.188,1.783c-1.254,1.277-1.661,4.178-1.661,4.178s-0.418,3.407-0.418,6.813    v3.194c0,3.407,0.418,6.812,0.418,6.812s0.407,2.901,1.661,4.179c1.591,1.677,3.678,1.625,4.609,1.799    c3.345,0.323,14.212,0.424,14.212,0.424s8.781-0.014,14.633-0.44c0.813-0.099,2.597-0.106,4.187-1.784    c1.253-1.277,1.663-4.179,1.663-4.179s0.416-3.405,0.416-6.812v-3.194c0-3.406-0.416-6.813-0.416-6.813    S70.073,38.682,68.82,37.405z M45.685,55.46l-0.002-11.828l11.293,5.935L45.685,55.46z" fill="#FFFFFF"/></g></g></svg>